# xmcd CD database file
#
# Track frame offsets:
#	150
#	12525
#	23312
#	32625
#	47025
#	58125
#	68625
#	82637
#	92475
#
# Disc length: 1431 seconds
#
# Revision: 0
# Processed by: cddbd v1.5.1PL0 Copyright (c) Steve Scherf et al.
# Submitted via: CDex 1.51
#
DISCID=5d059509
DTITLE=Frankie Laine - High Noon
DYEAR=1900
DGENRE=Country
TTITLE0=High Noon
TTITLE1=A Woman In Love
TTITLE2=Rawhide
TTITLE3=Riders In The Sky
TTITLE4=There's A Rainbow 'Round My Shoulder
TTITLE5=The Hanging Tree
TTITLE6=Careless Love
TTITLE7=Gunfighter At OK Corrall
TTITLE8=On The Trail
EXTD=
EXTT0=
EXTT1=
EXTT2=
EXTT3=
EXTT4=
EXTT5=
EXTT6=
EXTT7=
EXTT8=
PLAYORDER=
